<svg xmlns="http://www.w3.org/2000/svg" xmlns:xlink="http://www.w3.org/1999/xlink" width="500" zoomAndPan="magnify" viewBox="0 0 375 374.999991" height="500" preserveAspectRatio="xMidYMid meet" version="1.0"><defs><clipPath id="a954e7ce4c"><path d="M 41.34375 7.085938 L 83.53125 7.085938 L 83.53125 367.914062 L 41.34375 367.914062 Z M 41.34375 7.085938 " clip-rule="nonzero"/></clipPath><clipPath id="abaf9e793d"><path d="M 160 7 L 338 7 L 338 368 L 160 368 Z M 160 7 " clip-rule="nonzero"/></clipPath><clipPath id="90422754ed"><path d="M 298.304688 7.085938 L 337.5 22.699219 L 199.96875 367.914062 L 160.777344 352.300781 Z M 298.304688 7.085938 " clip-rule="nonzero"/></clipPath><clipPath id="28d3b48e96"><path d="M 298.304688 7.085938 L 337.5 22.699219 L 199.96875 367.914062 L 160.777344 352.300781 Z M 298.304688 7.085938 " clip-rule="nonzero"/></clipPath><clipPath id="1996607994"><path d="M 48 7 L 305 7 L 305 368 L 48 368 Z M 48 7 " clip-rule="nonzero"/></clipPath><clipPath id="29746c4cd1"><path d="M 48.132812 30.183594 L 83.433594 7.085938 L 304.410156 344.8125 L 269.109375 367.914062 Z M 48.132812 30.183594 " clip-rule="nonzero"/></clipPath><clipPath id="d40a8e6661"><path d="M 48.132812 30.183594 L 83.433594 7.085938 L 304.410156 344.8125 L 269.109375 367.914062 Z M 48.132812 30.183594 " clip-rule="nonzero"/></clipPath></defs><g clip-path="url(#a954e7ce4c)"><path fill="#000000" d="M 41.34375 7.085938 L 83.53125 7.085938 L 83.53125 367.914062 L 41.34375 367.914062 Z M 41.34375 7.085938 " fill-opacity="1" fill-rule="nonzero"/></g><g clip-path="url(#abaf9e793d)"><g clip-path="url(#90422754ed)"><g clip-path="url(#28d3b48e96)"><path fill="#000000" d="M 298.304688 7.085938 L 337.5 22.699219 L 199.96875 367.914062 L 160.777344 352.300781 Z M 298.304688 7.085938 " fill-opacity="1" fill-rule="nonzero"/></g></g></g><g clip-path="url(#1996607994)"><g clip-path="url(#29746c4cd1)"><g clip-path="url(#d40a8e6661)"><path fill="#000000" d="M 48.132812 30.183594 L 83.433594 7.085938 L 304.410156 344.8125 L 269.109375 367.914062 Z M 48.132812 30.183594 " fill-opacity="1" fill-rule="nonzero"/></g></g></g></svg>