<svg xmlns="http://www.w3.org/2000/svg" xmlns:xlink="http://www.w3.org/1999/xlink" width="500" zoomAndPan="magnify" viewBox="0 0 375 374.999991" height="500" preserveAspectRatio="xMidYMid meet" version="1.0"><defs><clipPath id="0ea2d03db9"><path d="M 187.5 0 C 83.945312 0 0 83.945312 0 187.5 C 0 291.054688 83.945312 375 187.5 375 C 291.054688 375 375 291.054688 375 187.5 C 375 83.945312 291.054688 0 187.5 0 Z M 187.5 0 " clip-rule="nonzero"/></clipPath><clipPath id="0b22aebf0f"><path d="M 96.910156 77.128906 L 122.71875 77.128906 L 122.71875 297.871094 L 96.910156 297.871094 Z M 96.910156 77.128906 " clip-rule="nonzero"/></clipPath><clipPath id="1b92e136be"><path d="M 169 77 L 279 77 L 279 298 L 169 298 Z M 169 77 " clip-rule="nonzero"/></clipPath><clipPath id="fd50116608"><path d="M 254.113281 77.128906 L 278.089844 86.679688 L 193.953125 297.871094 L 169.976562 288.320312 Z M 254.113281 77.128906 " clip-rule="nonzero"/></clipPath><clipPath id="c941092c62"><path d="M 254.113281 77.128906 L 278.089844 86.679688 L 193.953125 297.871094 L 169.976562 288.320312 Z M 254.113281 77.128906 " clip-rule="nonzero"/></clipPath><clipPath id="971bc0ce3b"><path d="M 101 77 L 258 77 L 258 298 L 101 298 Z M 101 77 " clip-rule="nonzero"/></clipPath><clipPath id="8d9ed3b093"><path d="M 101.0625 91.257812 L 122.660156 77.125 L 257.847656 283.738281 L 236.25 297.871094 Z M 101.0625 91.257812 " clip-rule="nonzero"/></clipPath><clipPath id="20501a9304"><path d="M 101.0625 91.257812 L 122.660156 77.125 L 257.847656 283.738281 L 236.25 297.871094 Z M 101.0625 91.257812 " clip-rule="nonzero"/></clipPath></defs><g clip-path="url(#0ea2d03db9)"><rect x="-37.5" width="450" fill="#afafaf" y="-37.499999" height="449.999989" fill-opacity="1"/></g><g clip-path="url(#0b22aebf0f)"><path fill="#000000" d="M 96.910156 77.128906 L 122.71875 77.128906 L 122.71875 297.871094 L 96.910156 297.871094 Z M 96.910156 77.128906 " fill-opacity="1" fill-rule="nonzero"/></g><g clip-path="url(#1b92e136be)"><g clip-path="url(#fd50116608)"><g clip-path="url(#c941092c62)"><path fill="#000000" d="M 254.113281 77.128906 L 278.089844 86.679688 L 193.953125 297.871094 L 169.976562 288.320312 Z M 254.113281 77.128906 " fill-opacity="1" fill-rule="nonzero"/></g></g></g><g clip-path="url(#971bc0ce3b)"><g clip-path="url(#8d9ed3b093)"><g clip-path="url(#20501a9304)"><path fill="#000000" d="M 101.0625 91.257812 L 122.660156 77.125 L 257.847656 283.738281 L 236.25 297.871094 Z M 101.0625 91.257812 " fill-opacity="1" fill-rule="nonzero"/></g></g></g></svg>