<svg xmlns="http://www.w3.org/2000/svg" xmlns:xlink="http://www.w3.org/1999/xlink" width="500" zoomAndPan="magnify" viewBox="0 0 375 374.999991" height="500" preserveAspectRatio="xMidYMid meet" version="1.0"><defs><clipPath id="f748fd8f55"><path d="M 187.5 0 C 83.945312 0 0 83.945312 0 187.5 C 0 291.054688 83.945312 375 187.5 375 C 291.054688 375 375 291.054688 375 187.5 C 375 83.945312 291.054688 0 187.5 0 Z M 187.5 0 " clip-rule="nonzero"/></clipPath><clipPath id="d0079e87bd"><path d="M 96.910156 77.128906 L 122.71875 77.128906 L 122.71875 297.871094 L 96.910156 297.871094 Z M 96.910156 77.128906 " clip-rule="nonzero"/></clipPath><clipPath id="7264d8d20f"><path d="M 169 77 L 279 77 L 279 298 L 169 298 Z M 169 77 " clip-rule="nonzero"/></clipPath><clipPath id="edcd79c49a"><path d="M 254.113281 77.128906 L 278.089844 86.679688 L 193.953125 297.871094 L 169.976562 288.320312 Z M 254.113281 77.128906 " clip-rule="nonzero"/></clipPath><clipPath id="c44858167c"><path d="M 254.113281 77.128906 L 278.089844 86.679688 L 193.953125 297.871094 L 169.976562 288.320312 Z M 254.113281 77.128906 " clip-rule="nonzero"/></clipPath><clipPath id="518b899a21"><path d="M 101 77 L 258 77 L 258 298 L 101 298 Z M 101 77 " clip-rule="nonzero"/></clipPath><clipPath id="224fb17134"><path d="M 101.0625 91.257812 L 122.660156 77.125 L 257.847656 283.738281 L 236.25 297.871094 Z M 101.0625 91.257812 " clip-rule="nonzero"/></clipPath><clipPath id="ca4d9f771e"><path d="M 101.0625 91.257812 L 122.660156 77.125 L 257.847656 283.738281 L 236.25 297.871094 Z M 101.0625 91.257812 " clip-rule="nonzero"/></clipPath></defs><g clip-path="url(#f748fd8f55)"><rect x="-37.5" width="450" fill="#202020" y="-37.499999" height="449.999989" fill-opacity="1"/></g><g clip-path="url(#d0079e87bd)"><path fill="#afafaf" d="M 96.910156 77.128906 L 122.71875 77.128906 L 122.71875 297.871094 L 96.910156 297.871094 Z M 96.910156 77.128906 " fill-opacity="1" fill-rule="nonzero"/></g><g clip-path="url(#7264d8d20f)"><g clip-path="url(#edcd79c49a)"><g clip-path="url(#c44858167c)"><path fill="#afafaf" d="M 254.113281 77.128906 L 278.089844 86.679688 L 193.953125 297.871094 L 169.976562 288.320312 Z M 254.113281 77.128906 " fill-opacity="1" fill-rule="nonzero"/></g></g></g><g clip-path="url(#518b899a21)"><g clip-path="url(#224fb17134)"><g clip-path="url(#ca4d9f771e)"><path fill="#afafaf" d="M 101.0625 91.257812 L 122.660156 77.125 L 257.847656 283.738281 L 236.25 297.871094 Z M 101.0625 91.257812 " fill-opacity="1" fill-rule="nonzero"/></g></g></g></svg>